<svg width="20" height="20" viewBox="0 0 20 20" fill="none" xmlns="http://www.w3.org/2000/svg">
<path d="M9.86865 13.9618C12.1199 13.9618 13.9618 12.1198 13.9618 9.86857C13.9618 7.61732 12.1199 5.77539 9.86865 5.77539" fill="white"/>
<path d="M9.86857 13.9618C12.1292 13.9618 13.9618 12.1292 13.9618 9.86857C13.9618 7.60797 12.1292 5.77539 9.86857 5.77539C7.60797 5.77539 5.77539 7.60797 5.77539 9.86857C5.77539 12.1292 7.60797 13.9618 9.86857 13.9618Z" stroke="white" stroke-width="1.5" stroke-linecap="round" stroke-linejoin="round"/>
<path d="M16.6909 9.86853H18.7375" stroke="white" stroke-width="1.5" stroke-linecap="round" stroke-linejoin="round"/>
<path d="M1 9.86853H3.04659" stroke="white" stroke-width="1.5" stroke-linecap="round" stroke-linejoin="round"/>
<path d="M9.86865 16.6905V18.7371" stroke="white" stroke-width="1.5" stroke-linecap="round" stroke-linejoin="round"/>
<path d="M9.86865 1V3.04659" stroke="white" stroke-width="1.5" stroke-linecap="round" stroke-linejoin="round"/>
<path d="M16.145 3.59241L14.7124 5.02492" stroke="white" stroke-width="1.5" stroke-linecap="round" stroke-linejoin="round"/>
<path d="M16.0767 16.0766L14.644 14.6439" stroke="white" stroke-width="1.5" stroke-linecap="round" stroke-linejoin="round"/>
<path d="M5.16162 5.16144L3.729 3.72876" stroke="white" stroke-width="1.5" stroke-linecap="round" stroke-linejoin="round"/>
<path d="M5.0249 14.7122L3.59229 16.1447" stroke="white" stroke-width="1.5" stroke-linecap="round" stroke-linejoin="round"/>
</svg>
