<svg width="23" height="23" viewBox="0 0 23 23" fill="none" xmlns="http://www.w3.org/2000/svg">
<circle cx="11.402" cy="11.402" r="10.902" fill="white" stroke="#C5C5C5"/>
<path d="M7.74268 13.1377C7.74268 13.4613 8.005 13.7236 8.32861 13.7236H13.9829C14.3065 13.7236 14.5688 13.4613 14.5688 13.1377C14.5688 12.8141 14.3065 12.5518 13.9829 12.5518H8.32861C8.005 12.5518 7.74268 12.8141 7.74268 13.1377Z" fill="#100DB1"/>
<path d="M17.1153 13.2372L16.9216 11.8552C16.8767 11.5347 16.5805 11.3112 16.26 11.3562C15.9395 11.4012 15.7161 11.6974 15.7611 12.0179L16.0239 13.8929C16.0644 14.1822 16.312 14.3975 16.6041 14.3975H16.9126C17.2357 14.3975 17.4985 14.6603 17.4985 14.9834C17.4985 15.3065 17.2357 15.5693 16.9126 15.5693H5.42822C5.10514 15.5693 4.84229 15.3065 4.84229 14.9834C4.84229 14.6603 5.10514 14.3975 5.42822 14.3975H5.73666C6.02884 14.3975 6.27637 14.1822 6.31691 13.8929L6.94773 9.39265C7.11769 8.18034 7.78609 7.1062 8.7816 6.4457C9.4917 5.97461 10.3208 5.72559 11.229 5.72559C11.7993 5.73736 12.3619 5.84969 12.839 6.05764C13.1356 6.18692 13.4809 6.05128 13.6103 5.75465C13.7396 5.45802 13.6039 5.1127 13.3073 4.98338C12.6893 4.71402 12.02 4.55371 11.229 4.55371C10.1451 4.55371 9.03646 4.87029 8.13376 5.46921C6.85896 6.31501 6.0037 7.68575 5.78726 9.22999L5.22552 13.2372C4.35142 13.3381 3.67041 14.0827 3.67041 14.9834C3.67041 15.9527 4.45896 16.7412 5.42822 16.7412H16.9126C17.8819 16.7412 18.6704 15.9527 18.6704 14.9834C18.6704 14.0827 17.9894 13.3381 17.1153 13.2372V13.2372Z" fill="#100DB1"/>
<path d="M11.1996 19.5537C10.3067 19.5537 9.55623 18.8901 9.45393 18.0101C9.41655 17.6886 9.64682 17.3978 9.96827 17.3604C10.2897 17.3228 10.5806 17.5533 10.618 17.8747C10.6516 18.1638 10.9016 18.3818 11.1996 18.3818C11.4976 18.3818 11.7477 18.1638 11.7813 17.8747C11.8187 17.5533 12.1097 17.323 12.431 17.3604C12.7524 17.3978 12.9827 17.6886 12.9453 18.0101C12.843 18.8901 12.0925 19.5537 11.1996 19.5537V19.5537ZM18.0844 6.89746H16.3266V5.13965C16.3266 4.81604 16.0642 4.55371 15.7406 4.55371C15.417 4.55371 15.1547 4.81604 15.1547 5.13965V6.89746H13.3969C13.0733 6.89746 12.8109 7.15979 12.8109 7.4834C12.8109 7.80701 13.0733 8.06934 13.3969 8.06934H15.1547V9.82715C15.1547 10.1508 15.417 10.4131 15.7406 10.4131C16.0642 10.4131 16.3266 10.1508 16.3266 9.82715V8.06934H18.0844C18.408 8.06934 18.6703 7.80701 18.6703 7.4834C18.6703 7.15979 18.408 6.89746 18.0844 6.89746Z" fill="#F80D38"/>
</svg>
