<svg width="9" height="3" viewBox="0 0 9 3" fill="none" xmlns="http://www.w3.org/2000/svg">
<path d="M1.86603 2.27069C2.34432 1.99454 2.50819 1.38295 2.23205 0.904661C1.95591 0.426368 1.34432 0.262493 0.866025 0.538635C0.387733 0.814778 0.223858 1.42637 0.5 1.90466C0.776142 2.38295 1.38773 2.54683 1.86603 2.27069Z" fill="#343434"/>
<path d="M4.86773 2.26971C5.34603 1.99357 5.5099 1.38198 5.23376 0.903684C4.95762 0.425391 4.34603 0.261516 3.86773 0.537659C3.38944 0.813801 3.22557 1.42539 3.50171 1.90368C3.77785 2.38198 4.38944 2.54585 4.86773 2.26971Z" fill="#343434"/>
<path d="M7.66534 2.23205C8.14363 1.95591 8.30751 1.34432 8.03137 0.866025C7.75522 0.387733 7.14363 0.223858 6.66534 0.5C6.18705 0.776142 6.02317 1.38773 6.29932 1.86603C6.57546 2.34432 7.18705 2.50819 7.66534 2.23205Z" fill="#343434"/>
</svg>
