<svg width="19" height="19" viewBox="0 0 19 19" fill="none" xmlns="http://www.w3.org/2000/svg">
<path d="M14.5469 19H4.45312C1.99767 19 0 17.0023 0 14.5469V4.45312C0 1.99767 1.99767 0 4.45312 0H14.5469C17.0023 0 19 1.99767 19 4.45312V14.5469C19 17.0023 17.0023 19 14.5469 19ZM4.45312 1.48438C2.81616 1.48438 1.48438 2.81616 1.48438 4.45312V14.5469C1.48438 16.1838 2.81616 17.5156 4.45312 17.5156H14.5469C16.1838 17.5156 17.5156 16.1838 17.5156 14.5469V4.45312C17.5156 2.81616 16.1838 1.48438 14.5469 1.48438H4.45312ZM7.83008 3.74805C7.83008 3.33814 7.4978 3.00586 7.08789 3.00586H3.9707C3.56079 3.00586 3.22852 3.33814 3.22852 3.74805C3.22852 4.15796 3.56079 4.49023 3.9707 4.49023H7.08789C7.4978 4.49023 7.83008 4.15796 7.83008 3.74805ZM14.6211 12.3945C14.6211 11.9846 14.2888 11.6523 13.8789 11.6523H7.68164C7.27173 11.6523 6.93945 11.9846 6.93945 12.3945C6.93945 12.8044 7.27173 13.1367 7.68164 13.1367H13.8789C14.2888 13.1367 14.6211 12.8044 14.6211 12.3945ZM15.623 15.2891C15.623 14.8792 15.2908 14.5469 14.8809 14.5469H13.248C12.8381 14.5469 12.5059 14.8792 12.5059 15.2891C12.5059 15.699 12.8381 16.0312 13.248 16.0312H14.8809C15.2908 16.0312 15.623 15.699 15.623 15.2891Z" fill="#100DB1"/>
<path d="M14.9922 10.2422H9.75977C9.34986 10.2422 9.01758 9.90991 9.01758 9.5C9.01758 9.09009 9.34986 8.75781 9.75977 8.75781H14.9922C15.4021 8.75781 15.7344 9.09009 15.7344 9.5C15.7344 9.90991 15.4021 10.2422 14.9922 10.2422ZM13.1367 6.64258C13.1367 6.23267 12.8044 5.90039 12.3945 5.90039H5.45508C5.04517 5.90039 4.71289 6.23267 4.71289 6.64258C4.71289 7.05249 5.04517 7.38477 5.45508 7.38477H12.3945C12.8044 7.38477 13.1367 7.05249 13.1367 6.64258Z" fill="#F80D38"/>
</svg>
