<svg width="15" height="14" viewBox="0 0 15 14" fill="none" xmlns="http://www.w3.org/2000/svg">
<path d="M6.18165 11.5303C2.77307 11.5303 0 8.94404 0 5.76513C0 2.58622 2.77307 0 6.18165 0C9.59023 0 12.3633 2.58622 12.3633 5.76513C12.3633 8.94404 9.5902 11.5303 6.18165 11.5303V11.5303ZM6.18165 1.09292C3.41924 1.09292 1.17188 3.18885 1.17188 5.76513C1.17188 8.3414 3.41924 10.4373 6.18165 10.4373C8.94405 10.4373 11.1914 8.3414 11.1914 5.76513C11.1914 3.18885 8.94403 1.09292 6.18165 1.09292V1.09292Z" fill="#100DB1"/>
<path d="M14.8286 13.8399C14.7142 13.9466 14.5642 14 14.4143 14C14.2643 14 14.1143 13.9466 13.9999 13.8399L11.3779 11.3945C11.149 11.1811 11.149 10.8351 11.3779 10.6217C11.6067 10.4084 11.9777 10.4083 12.2065 10.6217L14.8286 13.0671C15.0574 13.2806 15.0574 13.6266 14.8286 13.8399V13.8399ZM8.97353 4.81825L8.58318 5.03667C8.65967 5.25957 8.70136 5.49687 8.70136 5.74313C8.70136 5.98939 8.65967 6.22669 8.58318 6.44959L8.9735 6.66801C9.251 6.82329 9.34097 7.15895 9.17448 7.41773C9.06461 7.58849 8.87052 7.68311 8.67148 7.68311C8.56888 7.68311 8.46496 7.65798 8.37057 7.60516L7.97301 7.3827C7.65435 7.68054 7.24952 7.89782 6.797 8V8.47539C6.797 8.7772 6.53468 9.02185 6.21107 9.02185C5.88745 9.02185 5.62513 8.7772 5.62513 8.47539V8C5.16229 7.89547 4.74971 7.67019 4.42782 7.36185L3.993 7.60516C3.89863 7.65798 3.79469 7.68311 3.69209 7.68311C3.49302 7.68311 3.29895 7.58849 3.18909 7.41773C3.0226 7.15895 3.1126 6.82326 3.39007 6.66801L3.82961 6.42205C3.75903 6.20718 3.7208 5.97926 3.7208 5.74313C3.7208 5.50701 3.75903 5.27908 3.82961 5.06421L3.39004 4.81825C3.11254 4.66298 3.02257 4.32732 3.18906 4.06851C3.35558 3.80971 3.71547 3.7258 3.99297 3.88108L4.42779 4.12439C4.74968 3.81602 5.16227 3.59077 5.6251 3.48623V3.01084C5.6251 2.70904 5.88742 2.46439 6.21104 2.46439C6.53465 2.46439 6.79697 2.70904 6.79697 3.01084V3.48623C7.24949 3.58842 7.65432 3.80569 7.97298 4.10354L8.37051 3.88108C8.64804 3.7258 9.00792 3.80974 9.17442 4.06851C9.341 4.32732 9.251 4.66298 8.97353 4.81825ZM7.52949 5.74313C7.52949 5.06517 6.93807 4.5136 6.21112 4.5136C5.48418 4.5136 4.89276 5.06517 4.89276 5.74313C4.89276 6.4211 5.48418 6.97266 6.21112 6.97266C6.93807 6.97266 7.52949 6.4211 7.52949 5.74313Z" fill="#F80D38"/>
</svg>
