<svg width="14" height="17" viewBox="0 0 14 17" fill="none" xmlns="http://www.w3.org/2000/svg">
<path d="M12.3868 16.9574C12.021 16.9574 11.7244 16.6608 11.7244 16.295C11.7244 13.7017 9.61467 11.592 7.02142 11.592H6.02782C3.43457 11.592 1.3248 13.7017 1.3248 16.295C1.3248 16.6608 1.02824 16.9574 0.662398 16.9574C0.296556 16.9574 0 16.6608 0 16.295C0 12.9712 2.70407 10.2672 6.02782 10.2672H7.02142C10.3452 10.2672 13.0492 12.9712 13.0492 16.295C13.0492 16.6608 12.7527 16.9574 12.3868 16.9574ZM10.9296 4.47119C10.9296 2.00577 8.92379 0 6.45838 0C3.99297 0 1.98719 2.00577 1.98719 4.47119C1.98719 6.9366 3.99297 8.94237 6.45838 8.94237C8.92379 8.94237 10.9296 6.9366 10.9296 4.47119ZM9.60477 4.47119C9.60477 6.2061 8.1933 7.61757 6.45838 7.61757C4.72346 7.61757 3.31199 6.2061 3.31199 4.47119C3.31199 2.73627 4.72346 1.3248 6.45838 1.3248C8.1933 1.3248 9.60477 2.73627 9.60477 4.47119Z" fill="#F7F7F7"/>
<path d="M6.49159 16.9574C6.37673 16.9574 6.2619 16.9275 6.15917 16.8679L3.47646 15.3113C3.32215 15.2218 3.2105 15.0738 3.16672 14.9008C3.12297 14.7279 3.15082 14.5446 3.24395 14.3925L4.23755 12.7696C4.42855 12.4576 4.83636 12.3596 5.14835 12.5506C5.46034 12.7416 5.5584 13.1494 5.36737 13.4614L4.72792 14.5058L6.49556 15.5315L8.30884 14.5047L7.65403 13.4697C7.45846 13.1605 7.5505 12.7513 7.85967 12.5558C8.16878 12.3602 8.57801 12.4523 8.77358 12.7614L9.8003 14.3842C9.89724 14.5375 9.92711 14.7237 9.88303 14.8995C9.83892 15.0754 9.72469 15.2255 9.5669 15.3148L6.81795 16.8714C6.71671 16.9287 6.6041 16.9574 6.49159 16.9574Z" fill="#F80D38"/>
</svg>
