<svg width="28" height="33" viewBox="0 0 28 33" fill="none" xmlns="http://www.w3.org/2000/svg">
<rect width="27.6407" height="32.3192" rx="5" fill="#100DB1"/>
<path d="M18.2911 17.6591C17.9758 17.3308 17.5955 17.1553 17.1925 17.1553C16.7927 17.1553 16.4091 17.3275 16.0809 17.6558L15.0538 18.6797C14.9693 18.6342 14.8848 18.5919 14.8035 18.5496C14.6865 18.4911 14.576 18.4359 14.4817 18.3774C13.5196 17.7663 12.6453 16.97 11.8067 15.9397C11.4004 15.4261 11.1274 14.9938 10.9292 14.555C11.1957 14.3113 11.4427 14.0577 11.6832 13.814C11.7742 13.723 11.8652 13.6287 11.9562 13.5377C12.6388 12.8551 12.6388 11.9711 11.9562 11.2885L11.0689 10.4012C10.9682 10.3004 10.8641 10.1964 10.7666 10.0924C10.5716 9.89087 10.3669 9.68285 10.1556 9.48783C9.8403 9.17581 9.46327 9.01004 9.06673 9.01004C8.6702 9.01004 8.28666 9.17581 7.96164 9.48783C7.95839 9.49108 7.95839 9.49108 7.95513 9.49433L6.85004 10.6092C6.434 11.0252 6.19673 11.5323 6.14472 12.1206C6.06672 13.0697 6.34624 13.9537 6.56076 14.5323C7.08731 15.9527 7.87388 17.269 9.04723 18.6797C10.4709 20.3796 12.1838 21.7219 14.1404 22.6678C14.888 23.022 15.8858 23.4413 17.0007 23.5128C17.069 23.5161 17.1405 23.5193 17.2055 23.5193C17.9563 23.5193 18.5868 23.2496 19.0809 22.7133C19.0841 22.7068 19.0906 22.7035 19.0939 22.697C19.2629 22.4923 19.4579 22.307 19.6627 22.1087C19.8024 21.9755 19.9455 21.8357 20.0852 21.6894C20.407 21.3546 20.576 20.9646 20.576 20.5648C20.576 20.1618 20.4038 19.775 20.0755 19.45L18.2911 17.6591ZM19.4547 21.0816C19.4514 21.0816 19.4514 21.0849 19.4547 21.0816C19.3279 21.2181 19.1979 21.3416 19.0581 21.4782C18.8469 21.6797 18.6323 21.8909 18.4308 22.1282C18.1025 22.4793 17.7158 22.645 17.2087 22.645C17.16 22.645 17.108 22.645 17.0592 22.6418C16.0939 22.58 15.1968 22.203 14.524 21.8812C12.6843 20.9906 11.0689 19.7263 9.72654 18.1239C8.61819 16.788 7.87713 15.5529 7.38633 14.2268C7.08406 13.4174 6.97355 12.7869 7.0223 12.1921C7.0548 11.8118 7.20107 11.4965 7.47084 11.2267L8.57919 10.1184C8.73846 9.96888 8.90747 9.88762 9.07324 9.88762C9.278 9.88762 9.44377 10.0111 9.54778 10.1151C9.55103 10.1184 9.55428 10.1216 9.55753 10.1249C9.7558 10.3102 9.94431 10.5019 10.1426 10.7067C10.2433 10.8107 10.3473 10.9147 10.4514 11.022L11.3387 11.9093C11.6832 12.2538 11.6832 12.5724 11.3387 12.9169C11.2444 13.0111 11.1534 13.1054 11.0592 13.1964C10.7861 13.4759 10.5261 13.736 10.2433 13.9895C10.2368 13.996 10.2303 13.9992 10.2271 14.0057C9.94756 14.2853 9.99957 14.5583 10.0581 14.7436C10.0613 14.7533 10.0646 14.7631 10.0678 14.7728C10.2986 15.3319 10.6236 15.8584 11.1177 16.4857L11.1209 16.489C12.018 17.5941 12.9638 18.4554 14.0072 19.1152C14.1404 19.1997 14.277 19.268 14.407 19.333C14.524 19.3915 14.6345 19.4467 14.7287 19.5052C14.7417 19.5117 14.7547 19.5215 14.7677 19.528C14.8783 19.5832 14.9823 19.6092 15.0895 19.6092C15.3593 19.6092 15.5283 19.4402 15.5836 19.385L16.6952 18.2734C16.8057 18.1629 16.9812 18.0296 17.186 18.0296C17.3875 18.0296 17.5532 18.1564 17.654 18.2669C17.6573 18.2701 17.6573 18.2701 17.6605 18.2734L19.4514 20.0643C19.7862 20.3958 19.7862 20.7371 19.4547 21.0816Z" fill="white"/>
<path d="M14.4427 11.7825C15.2943 11.9255 16.0679 12.3285 16.6854 12.9461C17.303 13.5637 17.7028 14.3372 17.849 15.1888C17.8848 15.4033 18.07 15.5528 18.2813 15.5528C18.3073 15.5528 18.3301 15.5496 18.3561 15.5463C18.5966 15.5073 18.7559 15.2798 18.7169 15.0393C18.5413 14.0089 18.0538 13.0696 17.3095 12.3253C16.5652 11.581 15.6258 11.0934 14.5955 10.9179C14.355 10.8789 14.1307 11.0382 14.0884 11.2754C14.0462 11.5127 14.2022 11.7435 14.4427 11.7825Z" fill="white"/>
<path d="M21.5023 14.9126C21.2131 13.2159 20.4135 11.672 19.1849 10.4434C17.9563 9.21479 16.4124 8.41522 14.7157 8.12594C14.4784 8.08369 14.2542 8.24621 14.2119 8.48348C14.1729 8.724 14.3322 8.94827 14.5727 8.99052C16.0873 9.2473 17.4687 9.96561 18.5673 11.061C19.6659 12.1596 20.381 13.5409 20.6378 15.0556C20.6735 15.2701 20.8588 15.4196 21.07 15.4196C21.096 15.4196 21.1188 15.4163 21.1448 15.4131C21.3821 15.3773 21.5446 15.1498 21.5023 14.9126Z" fill="white"/>
</svg>
